<?xml version="1.0" standalone="no"?>
 <!DOCTYPE svg PUBLIC "-//W3C//DTD SVG 1.1//EN" 
 "http://www.w3.org/Graphics/SVG/1.1/DTD/svg11.dtd"> 
<svg
  xmlns:svg="http://www.w3.org/2000/svg"
  xmlns="http://www.w3.org/2000/svg"
  xmlns:xlink="http://www.w3.org/1999/xlink"
  xmlns:inkscape="http://www.inkscape.org/namespaces/inkscape"
  version="1.1"
  width="297.0022mm" height="210.0072mm" viewBox="0.0000 0.0000 297.0022 210.0072">
<title>SVG Image created as env_proof.svg date 2026-07-23T08:26:45 </title>
  <desc>Image generated by Eeschema-SVG </desc>
<g style="fill:#000000; fill-opacity:1.0000;stroke:#000000; stroke-opacity:1.0000;
stroke-linecap:round; stroke-linejoin:round;"
 transform="translate(0 0) scale(1 1)">
</g>
<g style="fill:#F5F4EF; fill-opacity:1.0000; 
stroke:#F5F4EF; stroke-width:0.0001; stroke-opacity:1; 
stroke-linecap:round; stroke-linejoin:round;">
<rect x="0.000000" y="0.000000" width="297.002200" height="210.007200" rx="0.000000" />
</g>
<g style="fill:none; 
stroke:#840000; stroke-width:0.1524; stroke-opacity:1; 
stroke-linecap:round; stroke-linejoin:round;">
<circle cx="76.2000" cy="60.1980" r="0.7620" /> 
<path d="M76.2000 60.9600
L76.2000 63.5000
" />
</g>
<g style="fill:none; 
stroke:#006464; stroke-width:0.1524; stroke-opacity:1; 
stroke-linecap:round; stroke-linejoin:round;">
<text x="81.8447" y="62.8650"
textLength="3.6503" font-size="1.6933" lengthAdjust="spacingAndGlyphs"
text-anchor="middle" opacity="0" stroke-opacity="0">TP1</text>
<g class="stroked-text"><desc>TP1</desc>
<path d="M80.2421 61.5395
L80.9678 61.5395
" />
<path d="M80.6050 62.8095
L80.6050 61.5395
" />
<path d="M81.3911 62.8095
L81.3911 61.5395
" />
<path d="M81.3911 61.5395
L81.8749 61.5395
" />
<path d="M81.8749 61.5395
L81.9959 61.6000
" />
<path d="M81.9959 61.6000
L82.0564 61.6605
" />
<path d="M82.0564 61.6605
L82.1168 61.7814
" />
<path d="M82.1168 61.7814
L82.1168 61.9629
" />
<path d="M82.1168 61.9629
L82.0564 62.0838
" />
<path d="M82.0564 62.0838
L81.9959 62.1443
" />
<path d="M81.9959 62.1443
L81.8749 62.2048
" />
<path d="M81.8749 62.2048
L81.3911 62.2048
" />
<path d="M83.3264 62.8095
L82.6007 62.8095
" />
<path d="M82.9635 62.8095
L82.9635 61.5395
" />
<path d="M82.9635 61.5395
L82.8426 61.7210
" />
<path d="M82.8426 61.7210
L82.7216 61.8419
" />
<path d="M82.7216 61.8419
L82.6007 61.9024
" />
</g><text x="81.0888" y="65.4050"
textLength="2.1385" font-size="1.6933" lengthAdjust="spacingAndGlyphs"
text-anchor="middle" opacity="0" stroke-opacity="0">IN</text>
<g class="stroked-text"><desc>IN</desc>
<path d="M80.4235 65.3495
L80.4235 64.0795
" />
<path d="M81.0283 65.3495
L81.0283 64.0795
" />
<path d="M81.0283 64.0795
L81.7540 65.3495
" />
<path d="M81.7540 65.3495
L81.7540 64.0795
" />
</g></g>
<g style="fill:none; 
stroke:#840000; stroke-width:0.2540; stroke-opacity:1; 
stroke-linecap:round; stroke-linejoin:round;">
<rect x="75.184000" y="73.660000" width="2.032000" height="5.080000" rx="0.000000" />
</g>
<g style="fill:none; 
stroke:#840000; stroke-width:0.1524; stroke-opacity:1; 
stroke-linecap:round; stroke-linejoin:round;">
<path d="M76.2000 73.6600
L76.2000 72.3900
" />
<path d="M76.2000 78.7400
L76.2000 80.0100
" />
</g>
<g style="fill:none; 
stroke:#006464; stroke-width:0.1524; stroke-opacity:1; 
stroke-linecap:round; stroke-linejoin:round;">
<text x="81.3609" y="75.5650"
textLength="2.6827" font-size="1.6933" lengthAdjust="spacingAndGlyphs"
text-anchor="middle" opacity="0" stroke-opacity="0">R1</text>
<g class="stroked-text"><desc>R1</desc>
<path d="M81.1492 75.5095
L80.7259 74.9048
" />
<path d="M80.4235 75.5095
L80.4235 74.2395
" />
<path d="M80.4235 74.2395
L80.9073 74.2395
" />
<path d="M80.9073 74.2395
L81.0283 74.3000
" />
<path d="M81.0283 74.3000
L81.0888 74.3605
" />
<path d="M81.0888 74.3605
L81.1492 74.4814
" />
<path d="M81.1492 74.4814
L81.1492 74.6629
" />
<path d="M81.1492 74.6629
L81.0888 74.7838
" />
<path d="M81.0888 74.7838
L81.0283 74.8443
" />
<path d="M81.0283 74.8443
L80.9073 74.9048
" />
<path d="M80.9073 74.9048
L80.4235 74.9048
" />
<path d="M82.3588 75.5095
L81.6331 75.5095
" />
<path d="M81.9959 75.5095
L81.9959 74.2395
" />
<path d="M81.9959 74.2395
L81.8750 74.4210
" />
<path d="M81.8750 74.4210
L81.7540 74.5419
" />
<path d="M81.7540 74.5419
L81.6331 74.6024
" />
</g><text x="81.8447" y="78.1050"
textLength="3.6503" font-size="1.6933" lengthAdjust="spacingAndGlyphs"
text-anchor="middle" opacity="0" stroke-opacity="0">10k</text>
<g class="stroked-text"><desc>10k</desc>
<path d="M81.0888 78.0495
L80.3631 78.0495
" />
<path d="M80.7259 78.0495
L80.7259 76.7795
" />
<path d="M80.7259 76.7795
L80.6050 76.9610
" />
<path d="M80.6050 76.9610
L80.4840 77.0819
" />
<path d="M80.4840 77.0819
L80.3631 77.1424
" />
<path d="M81.8749 76.7795
L81.9959 76.7795
" />
<path d="M81.9959 76.7795
L82.1168 76.8400
" />
<path d="M82.1168 76.8400
L82.1773 76.9005
" />
<path d="M82.1773 76.9005
L82.2378 77.0214
" />
<path d="M82.2378 77.0214
L82.2983 77.2633
" />
<path d="M82.2983 77.2633
L82.2983 77.5657
" />
<path d="M82.2983 77.5657
L82.2378 77.8076
" />
<path d="M82.2378 77.8076
L82.1773 77.9286
" />
<path d="M82.1773 77.9286
L82.1168 77.9891
" />
<path d="M82.1168 77.9891
L81.9959 78.0495
" />
<path d="M81.9959 78.0495
L81.8749 78.0495
" />
<path d="M81.8749 78.0495
L81.7540 77.9891
" />
<path d="M81.7540 77.9891
L81.6935 77.9286
" />
<path d="M81.6935 77.9286
L81.6330 77.8076
" />
<path d="M81.6330 77.8076
L81.5726 77.5657
" />
<path d="M81.5726 77.5657
L81.5726 77.2633
" />
<path d="M81.5726 77.2633
L81.6330 77.0214
" />
<path d="M81.6330 77.0214
L81.6935 76.9005
" />
<path d="M81.6935 76.9005
L81.7540 76.8400
" />
<path d="M81.7540 76.8400
L81.8749 76.7795
" />
<path d="M82.8425 78.0495
L82.8425 76.7795
" />
<path d="M82.9635 77.5657
L83.3263 78.0495
" />
<path d="M83.3263 77.2029
L82.8425 77.6867
" />
</g></g>
<g style="fill:none; 
stroke:#840000; stroke-width:0.2540; stroke-opacity:1; 
stroke-linecap:round; stroke-linejoin:round;">
<rect x="75.184000" y="86.360000" width="2.032000" height="5.080000" rx="0.000000" />
</g>
<g style="fill:none; 
stroke:#840000; stroke-width:0.1524; stroke-opacity:1; 
stroke-linecap:round; stroke-linejoin:round;">
<path d="M76.2000 86.3600
L76.2000 85.0900
" />
<path d="M76.2000 91.4400
L76.2000 92.7100
" />
</g>
<g style="fill:none; 
stroke:#006464; stroke-width:0.1524; stroke-opacity:1; 
stroke-linecap:round; stroke-linejoin:round;">
<text x="81.3609" y="88.2650"
textLength="2.6827" font-size="1.6933" lengthAdjust="spacingAndGlyphs"
text-anchor="middle" opacity="0" stroke-opacity="0">R2</text>
<g class="stroked-text"><desc>R2</desc>
<path d="M81.1492 88.2095
L80.7259 87.6048
" />
<path d="M80.4235 88.2095
L80.4235 86.9395
" />
<path d="M80.4235 86.9395
L80.9073 86.9395
" />
<path d="M80.9073 86.9395
L81.0283 87.0000
" />
<path d="M81.0283 87.0000
L81.0888 87.0605
" />
<path d="M81.0888 87.0605
L81.1492 87.1814
" />
<path d="M81.1492 87.1814
L81.1492 87.3629
" />
<path d="M81.1492 87.3629
L81.0888 87.4838
" />
<path d="M81.0888 87.4838
L81.0283 87.5443
" />
<path d="M81.0283 87.5443
L80.9073 87.6048
" />
<path d="M80.9073 87.6048
L80.4235 87.6048
" />
<path d="M81.6331 87.0605
L81.6935 87.0000
" />
<path d="M81.6935 87.0000
L81.8145 86.9395
" />
<path d="M81.8145 86.9395
L82.1169 86.9395
" />
<path d="M82.1169 86.9395
L82.2378 87.0000
" />
<path d="M82.2378 87.0000
L82.2983 87.0605
" />
<path d="M82.2983 87.0605
L82.3588 87.1814
" />
<path d="M82.3588 87.1814
L82.3588 87.3024
" />
<path d="M82.3588 87.3024
L82.2983 87.4838
" />
<path d="M82.2983 87.4838
L81.5726 88.2095
" />
<path d="M81.5726 88.2095
L82.3588 88.2095
" />
</g><text x="81.8447" y="90.8050"
textLength="3.6503" font-size="1.6933" lengthAdjust="spacingAndGlyphs"
text-anchor="middle" opacity="0" stroke-opacity="0">10k</text>
<g class="stroked-text"><desc>10k</desc>
<path d="M81.0888 90.7495
L80.3631 90.7495
" />
<path d="M80.7259 90.7495
L80.7259 89.4795
" />
<path d="M80.7259 89.4795
L80.6050 89.6610
" />
<path d="M80.6050 89.6610
L80.4840 89.7819
" />
<path d="M80.4840 89.7819
L80.3631 89.8424
" />
<path d="M81.8749 89.4795
L81.9959 89.4795
" />
<path d="M81.9959 89.4795
L82.1168 89.5400
" />
<path d="M82.1168 89.5400
L82.1773 89.6005
" />
<path d="M82.1773 89.6005
L82.2378 89.7214
" />
<path d="M82.2378 89.7214
L82.2983 89.9633
" />
<path d="M82.2983 89.9633
L82.2983 90.2657
" />
<path d="M82.2983 90.2657
L82.2378 90.5076
" />
<path d="M82.2378 90.5076
L82.1773 90.6286
" />
<path d="M82.1773 90.6286
L82.1168 90.6891
" />
<path d="M82.1168 90.6891
L81.9959 90.7495
" />
<path d="M81.9959 90.7495
L81.8749 90.7495
" />
<path d="M81.8749 90.7495
L81.7540 90.6891
" />
<path d="M81.7540 90.6891
L81.6935 90.6286
" />
<path d="M81.6935 90.6286
L81.6330 90.5076
" />
<path d="M81.6330 90.5076
L81.5726 90.2657
" />
<path d="M81.5726 90.2657
L81.5726 89.9633
" />
<path d="M81.5726 89.9633
L81.6330 89.7214
" />
<path d="M81.6330 89.7214
L81.6935 89.6005
" />
<path d="M81.6935 89.6005
L81.7540 89.5400
" />
<path d="M81.7540 89.5400
L81.8749 89.4795
" />
<path d="M82.8425 90.7495
L82.8425 89.4795
" />
<path d="M82.9635 90.2657
L83.3263 90.7495
" />
<path d="M83.3263 89.9029
L82.8425 90.3867
" />
</g><path style="fill:none; 
stroke:#840000; stroke-width:0.1524; stroke-opacity:1; 
stroke-linecap:round; stroke-linejoin:round;fill:none"
d="M 95.2500,86.3600
95.2500,85.0900
94.2340,84.4550
95.2500,83.8200
96.2660,84.4550
95.2500,85.0900
" /> 
</g>
<g style="fill:none; 
stroke:#840000; stroke-width:0.1524; stroke-opacity:1; 
stroke-linecap:round; stroke-linejoin:round;">
<path d="M95.2500 86.3600
L95.2500 86.3600
" />
</g>
<g style="fill:none; 
stroke:#006464; stroke-width:0.1524; stroke-opacity:1; 
stroke-linecap:round; stroke-linejoin:round;">
<text x="100.0783" y="83.1850"
textLength="9.6375" font-size="1.6933" lengthAdjust="spacingAndGlyphs"
text-anchor="middle" opacity="0" stroke-opacity="0">PWR_FLAG</text>
<g class="stroked-text"><desc>PWR_FLAG</desc>
<path d="M95.6635 83.1295
L95.6635 81.8595
" />
<path d="M95.6635 81.8595
L96.1473 81.8595
" />
<path d="M96.1473 81.8595
L96.2683 81.9200
" />
<path d="M96.2683 81.9200
L96.3288 81.9805
" />
<path d="M96.3288 81.9805
L96.3892 82.1014
" />
<path d="M96.3892 82.1014
L96.3892 82.2829
" />
<path d="M96.3892 82.2829
L96.3288 82.4038
" />
<path d="M96.3288 82.4038
L96.2683 82.4643
" />
<path d="M96.2683 82.4643
L96.1473 82.5248
" />
<path d="M96.1473 82.5248
L95.6635 82.5248
" />
<path d="M96.8126 81.8595
L97.1150 83.1295
" />
<path d="M97.1150 83.1295
L97.3569 82.2224
" />
<path d="M97.3569 82.2224
L97.5988 83.1295
" />
<path d="M97.5988 83.1295
L97.9012 81.8595
" />
<path d="M99.1106 83.1295
L98.6873 82.5248
" />
<path d="M98.3849 83.1295
L98.3849 81.8595
" />
<path d="M98.3849 81.8595
L98.8687 81.8595
" />
<path d="M98.8687 81.8595
L98.9897 81.9200
" />
<path d="M98.9897 81.9200
L99.0502 81.9805
" />
<path d="M99.0502 81.9805
L99.1106 82.1014
" />
<path d="M99.1106 82.1014
L99.1106 82.2829
" />
<path d="M99.1106 82.2829
L99.0502 82.4038
" />
<path d="M99.0502 82.4038
L98.9897 82.4643
" />
<path d="M98.9897 82.4643
L98.8687 82.5248
" />
<path d="M98.8687 82.5248
L98.3849 82.5248
" />
<path d="M99.3526 83.2505
L100.3202 83.2505
" />
<path d="M101.0459 82.4643
L100.6225 82.4643
" />
<path d="M100.6225 83.1295
L100.6225 81.8595
" />
<path d="M100.6225 81.8595
L101.2273 81.8595
" />
<path d="M102.3159 83.1295
L101.7111 83.1295
" />
<path d="M101.7111 83.1295
L101.7111 81.8595
" />
<path d="M102.6788 82.7667
L103.2835 82.7667
" />
<path d="M102.5578 83.1295
L102.9811 81.8595
" />
<path d="M102.9811 81.8595
L103.4045 83.1295
" />
<path d="M104.4931 81.9200
L104.3721 81.8595
" />
<path d="M104.3721 81.8595
L104.1907 81.8595
" />
<path d="M104.1907 81.8595
L104.0093 81.9200
" />
<path d="M104.0093 81.9200
L103.8883 82.0410
" />
<path d="M103.8883 82.0410
L103.8278 82.1619
" />
<path d="M103.8278 82.1619
L103.7674 82.4038
" />
<path d="M103.7674 82.4038
L103.7674 82.5852
" />
<path d="M103.7674 82.5852
L103.8278 82.8271
" />
<path d="M103.8278 82.8271
L103.8883 82.9481
" />
<path d="M103.8883 82.9481
L104.0093 83.0691
" />
<path d="M104.0093 83.0691
L104.1907 83.1295
" />
<path d="M104.1907 83.1295
L104.3116 83.1295
" />
<path d="M104.3116 83.1295
L104.4931 83.0691
" />
<path d="M104.4931 83.0691
L104.5535 83.0086
" />
<path d="M104.5535 83.0086
L104.5535 82.5852
" />
<path d="M104.5535 82.5852
L104.3116 82.5852
" />
</g></g>
<g style="fill:none; 
stroke:#840000; stroke-width:0.1524; stroke-opacity:1; 
stroke-linecap:round; stroke-linejoin:round;">
<circle cx="101.6000" cy="89.4080" r="0.7620" /> 
<path d="M101.6000 90.1700
L101.6000 92.7100
" />
</g>
<g style="fill:none; 
stroke:#006464; stroke-width:0.1524; stroke-opacity:1; 
stroke-linecap:round; stroke-linejoin:round;">
<text x="107.2447" y="92.0750"
textLength="3.6503" font-size="1.6933" lengthAdjust="spacingAndGlyphs"
text-anchor="middle" opacity="0" stroke-opacity="0">TP2</text>
<g class="stroked-text"><desc>TP2</desc>
<path d="M105.6421 90.7495
L106.3678 90.7495
" />
<path d="M106.0050 92.0195
L106.0050 90.7495
" />
<path d="M106.7911 92.0195
L106.7911 90.7495
" />
<path d="M106.7911 90.7495
L107.2749 90.7495
" />
<path d="M107.2749 90.7495
L107.3959 90.8100
" />
<path d="M107.3959 90.8100
L107.4564 90.8705
" />
<path d="M107.4564 90.8705
L107.5168 90.9914
" />
<path d="M107.5168 90.9914
L107.5168 91.1729
" />
<path d="M107.5168 91.1729
L107.4564 91.2938
" />
<path d="M107.4564 91.2938
L107.3959 91.3543
" />
<path d="M107.3959 91.3543
L107.2749 91.4148
" />
<path d="M107.2749 91.4148
L106.7911 91.4148
" />
<path d="M108.0007 90.8705
L108.0611 90.8100
" />
<path d="M108.0611 90.8100
L108.1821 90.7495
" />
<path d="M108.1821 90.7495
L108.4845 90.7495
" />
<path d="M108.4845 90.7495
L108.6054 90.8100
" />
<path d="M108.6054 90.8100
L108.6659 90.8705
" />
<path d="M108.6659 90.8705
L108.7264 90.9914
" />
<path d="M108.7264 90.9914
L108.7264 91.1124
" />
<path d="M108.7264 91.1124
L108.6659 91.2938
" />
<path d="M108.6659 91.2938
L107.9402 92.0195
" />
<path d="M107.9402 92.0195
L108.7264 92.0195
" />
</g><text x="107.4564" y="94.6150"
textLength="4.0737" font-size="1.6933" lengthAdjust="spacingAndGlyphs"
text-anchor="middle" opacity="0" stroke-opacity="0">GND</text>
<g class="stroked-text"><desc>GND</desc>
<path d="M106.4888 93.3500
L106.3678 93.2895
" />
<path d="M106.3678 93.2895
L106.1864 93.2895
" />
<path d="M106.1864 93.2895
L106.0050 93.3500
" />
<path d="M106.0050 93.3500
L105.8840 93.4710
" />
<path d="M105.8840 93.4710
L105.8235 93.5919
" />
<path d="M105.8235 93.5919
L105.7631 93.8338
" />
<path d="M105.7631 93.8338
L105.7631 94.0152
" />
<path d="M105.7631 94.0152
L105.8235 94.2571
" />
<path d="M105.8235 94.2571
L105.8840 94.3781
" />
<path d="M105.8840 94.3781
L106.0050 94.4991
" />
<path d="M106.0050 94.4991
L106.1864 94.5595
" />
<path d="M106.1864 94.5595
L106.3073 94.5595
" />
<path d="M106.3073 94.5595
L106.4888 94.4991
" />
<path d="M106.4888 94.4991
L106.5492 94.4386
" />
<path d="M106.5492 94.4386
L106.5492 94.0152
" />
<path d="M106.5492 94.0152
L106.3073 94.0152
" />
<path d="M107.0935 94.5595
L107.0935 93.2895
" />
<path d="M107.0935 93.2895
L107.8192 94.5595
" />
<path d="M107.8192 94.5595
L107.8192 93.2895
" />
<path d="M108.4240 94.5595
L108.4240 93.2895
" />
<path d="M108.4240 93.2895
L108.7264 93.2895
" />
<path d="M108.7264 93.2895
L108.9078 93.3500
" />
<path d="M108.9078 93.3500
L109.0288 93.4710
" />
<path d="M109.0288 93.4710
L109.0893 93.5919
" />
<path d="M109.0893 93.5919
L109.1497 93.8338
" />
<path d="M109.1497 93.8338
L109.1497 94.0152
" />
<path d="M109.1497 94.0152
L109.0893 94.2571
" />
<path d="M109.0893 94.2571
L109.0288 94.3781
" />
<path d="M109.0288 94.3781
L108.9078 94.4991
" />
<path d="M108.9078 94.4991
L108.7264 94.5595
" />
<path d="M108.7264 94.5595
L108.4240 94.5595
" />
</g><path style="fill:none; 
stroke:#840000; stroke-width:0.1524; stroke-opacity:1; 
stroke-linecap:round; stroke-linejoin:round;fill:none"
d="M 88.9000,99.0600
88.9000,100.3300
90.1700,100.3300
88.9000,101.6000
87.6300,100.3300
88.9000,100.3300
" /> 
</g>
<g style="fill:none; 
stroke:#840000; stroke-width:0.1524; stroke-opacity:1; 
stroke-linecap:round; stroke-linejoin:round;">
<path d="M88.9000 99.0600
L88.9000 99.0600
" />
</g>
<g style="fill:none; 
stroke:#006464; stroke-width:0.1524; stroke-opacity:1; 
stroke-linecap:round; stroke-linejoin:round;">
<text x="90.9464" y="103.5050"
textLength="4.0737" font-size="1.6933" lengthAdjust="spacingAndGlyphs"
text-anchor="middle" opacity="0" stroke-opacity="0">GND</text>
<g class="stroked-text"><desc>GND</desc>
<path d="M89.9788 102.2400
L89.8578 102.1795
" />
<path d="M89.8578 102.1795
L89.6764 102.1795
" />
<path d="M89.6764 102.1795
L89.4950 102.2400
" />
<path d="M89.4950 102.2400
L89.3740 102.3610
" />
<path d="M89.3740 102.3610
L89.3135 102.4819
" />
<path d="M89.3135 102.4819
L89.2531 102.7238
" />
<path d="M89.2531 102.7238
L89.2531 102.9052
" />
<path d="M89.2531 102.9052
L89.3135 103.1471
" />
<path d="M89.3135 103.1471
L89.3740 103.2681
" />
<path d="M89.3740 103.2681
L89.4950 103.3891
" />
<path d="M89.4950 103.3891
L89.6764 103.4495
" />
<path d="M89.6764 103.4495
L89.7973 103.4495
" />
<path d="M89.7973 103.4495
L89.9788 103.3891
" />
<path d="M89.9788 103.3891
L90.0392 103.3286
" />
<path d="M90.0392 103.3286
L90.0392 102.9052
" />
<path d="M90.0392 102.9052
L89.7973 102.9052
" />
<path d="M90.5835 103.4495
L90.5835 102.1795
" />
<path d="M90.5835 102.1795
L91.3092 103.4495
" />
<path d="M91.3092 103.4495
L91.3092 102.1795
" />
<path d="M91.9140 103.4495
L91.9140 102.1795
" />
<path d="M91.9140 102.1795
L92.2164 102.1795
" />
<path d="M92.2164 102.1795
L92.3978 102.2400
" />
<path d="M92.3978 102.2400
L92.5188 102.3610
" />
<path d="M92.5188 102.3610
L92.5793 102.4819
" />
<path d="M92.5793 102.4819
L92.6397 102.7238
" />
<path d="M92.6397 102.7238
L92.6397 102.9052
" />
<path d="M92.6397 102.9052
L92.5793 103.1471
" />
<path d="M92.5793 103.1471
L92.5188 103.2681
" />
<path d="M92.5188 103.2681
L92.3978 103.3891
" />
<path d="M92.3978 103.3891
L92.2164 103.4495
" />
<path d="M92.2164 103.4495
L91.9140 103.4495
" />
</g></g>
<g style="fill:none; 
stroke:#0F0F0F; stroke-width:0.1524; stroke-opacity:1; 
stroke-linecap:round; stroke-linejoin:round;">
<text x="76.2000" y="68.2307"
textLength="2.1385" font-size="1.6933" lengthAdjust="spacingAndGlyphs"
text-anchor="start" opacity="0" stroke-opacity="0">IN</text>
<g class="stroked-text"><desc>IN</desc>
<path d="M76.6025 68.0672
L76.6025 66.7972
" />
<path d="M77.2073 68.0672
L77.2073 66.7972
" />
<path d="M77.2073 66.7972
L77.9330 68.0672
" />
<path d="M77.9330 68.0672
L77.9330 66.7972
" />
</g></g>
<g style="fill:none; 
stroke:#0F0F0F; stroke-width:0.1524; stroke-opacity:1; 
stroke-linecap:round; stroke-linejoin:round;">
<text x="76.2000" y="82.2007"
textLength="3.5294" font-size="1.6933" lengthAdjust="spacingAndGlyphs"
text-anchor="start" opacity="0" stroke-opacity="0">MID</text>
<g class="stroked-text"><desc>MID</desc>
<path d="M76.6025 82.0372
L76.6025 80.7672
" />
<path d="M76.6025 80.7672
L77.0259 81.6744
" />
<path d="M77.0259 81.6744
L77.4492 80.7672
" />
<path d="M77.4492 80.7672
L77.4492 82.0372
" />
<path d="M78.0539 82.0372
L78.0539 80.7672
" />
<path d="M78.6587 82.0372
L78.6587 80.7672
" />
<path d="M78.6587 80.7672
L78.9611 80.7672
" />
<path d="M78.9611 80.7672
L79.1425 80.8277
" />
<path d="M79.1425 80.8277
L79.2635 80.9487
" />
<path d="M79.2635 80.9487
L79.3240 81.0696
" />
<path d="M79.3240 81.0696
L79.3844 81.3115
" />
<path d="M79.3844 81.3115
L79.3844 81.4929
" />
<path d="M79.3844 81.4929
L79.3240 81.7348
" />
<path d="M79.3240 81.7348
L79.2635 81.8558
" />
<path d="M79.2635 81.8558
L79.1425 81.9768
" />
<path d="M79.1425 81.9768
L78.9611 82.0372
" />
<path d="M78.9611 82.0372
L78.6587 82.0372
" />
</g></g>
<g style="fill:none; 
stroke:#009600; stroke-width:0.1524; stroke-opacity:1; 
stroke-linecap:round; stroke-linejoin:round;">
<path d="M76.2000 63.5000
L76.2000 72.3900
" />
<path d="M76.2000 80.0100
L76.2000 85.0900
" />
<path d="M76.2000 92.7100
L88.9000 92.7100
" />
<path d="M95.2500 92.7100
L101.6000 92.7100
" />
<path d="M95.2500 92.7100
L95.2500 86.3600
" />
<path d="M88.9000 92.7100
L95.2500 92.7100
" />
<path d="M88.9000 92.7100
L88.9000 99.0600
" />
</g>
<g style="fill:#009600; fill-opacity:1.0000; stroke:none;">
<circle cx="95.2500" cy="92.7100" r="0.4572" /> 
</g>
<g style="fill:#009600; fill-opacity:1.0000; stroke:none;">
<circle cx="88.9000" cy="92.7100" r="0.4572" /> 
</g> 
</svg>
