%TF.GenerationSoftware,KiCad,Pcbnew,10.0.3*%
%TF.CreationDate,2026-07-23T08:26:36-04:00*%
%TF.ProjectId,env_proof,656e765f-7072-46f6-9f66-2e6b69636164,rev?*%
%TF.SameCoordinates,Original*%
%TF.FileFunction,AssemblyDrawing,Top*%
%FSLAX46Y46*%
G04 Gerber Fmt 4.6, Leading zero omitted, Abs format (unit mm)*
G04 Created by KiCad (PCBNEW 10.0.3) date 2026-07-23 08:26:36*
%MOMM*%
%LPD*%
G01*
G04 APERTURE LIST*
%ADD10C,0.150000*%
%ADD11C,0.080000*%
%ADD12C,0.100000*%
G04 APERTURE END LIST*
D10*
X139238095Y-113252438D02*
X139142857Y-113204819D01*
X139142857Y-113204819D02*
X139000000Y-113204819D01*
X139000000Y-113204819D02*
X138857143Y-113252438D01*
X138857143Y-113252438D02*
X138761905Y-113347676D01*
X138761905Y-113347676D02*
X138714286Y-113442914D01*
X138714286Y-113442914D02*
X138666667Y-113633390D01*
X138666667Y-113633390D02*
X138666667Y-113776247D01*
X138666667Y-113776247D02*
X138714286Y-113966723D01*
X138714286Y-113966723D02*
X138761905Y-114061961D01*
X138761905Y-114061961D02*
X138857143Y-114157200D01*
X138857143Y-114157200D02*
X139000000Y-114204819D01*
X139000000Y-114204819D02*
X139095238Y-114204819D01*
X139095238Y-114204819D02*
X139238095Y-114157200D01*
X139238095Y-114157200D02*
X139285714Y-114109580D01*
X139285714Y-114109580D02*
X139285714Y-113776247D01*
X139285714Y-113776247D02*
X139095238Y-113776247D01*
X139714286Y-114204819D02*
X139714286Y-113204819D01*
X139714286Y-113204819D02*
X140285714Y-114204819D01*
X140285714Y-114204819D02*
X140285714Y-113204819D01*
X140761905Y-114204819D02*
X140761905Y-113204819D01*
X140761905Y-113204819D02*
X141000000Y-113204819D01*
X141000000Y-113204819D02*
X141142857Y-113252438D01*
X141142857Y-113252438D02*
X141238095Y-113347676D01*
X141238095Y-113347676D02*
X141285714Y-113442914D01*
X141285714Y-113442914D02*
X141333333Y-113633390D01*
X141333333Y-113633390D02*
X141333333Y-113776247D01*
X141333333Y-113776247D02*
X141285714Y-113966723D01*
X141285714Y-113966723D02*
X141238095Y-114061961D01*
X141238095Y-114061961D02*
X141142857Y-114157200D01*
X141142857Y-114157200D02*
X141000000Y-114204819D01*
X141000000Y-114204819D02*
X140761905Y-114204819D01*
X138738095Y-109804819D02*
X139309523Y-109804819D01*
X139023809Y-110804819D02*
X139023809Y-109804819D01*
X139642857Y-110804819D02*
X139642857Y-109804819D01*
X139642857Y-109804819D02*
X140023809Y-109804819D01*
X140023809Y-109804819D02*
X140119047Y-109852438D01*
X140119047Y-109852438D02*
X140166666Y-109900057D01*
X140166666Y-109900057D02*
X140214285Y-109995295D01*
X140214285Y-109995295D02*
X140214285Y-110138152D01*
X140214285Y-110138152D02*
X140166666Y-110233390D01*
X140166666Y-110233390D02*
X140119047Y-110281009D01*
X140119047Y-110281009D02*
X140023809Y-110328628D01*
X140023809Y-110328628D02*
X139642857Y-110328628D01*
X140595238Y-109900057D02*
X140642857Y-109852438D01*
X140642857Y-109852438D02*
X140738095Y-109804819D01*
X140738095Y-109804819D02*
X140976190Y-109804819D01*
X140976190Y-109804819D02*
X141071428Y-109852438D01*
X141071428Y-109852438D02*
X141119047Y-109900057D01*
X141119047Y-109900057D02*
X141166666Y-109995295D01*
X141166666Y-109995295D02*
X141166666Y-110090533D01*
X141166666Y-110090533D02*
X141119047Y-110233390D01*
X141119047Y-110233390D02*
X140547619Y-110804819D01*
X140547619Y-110804819D02*
X141166666Y-110804819D01*
X127404761Y-114104819D02*
X126833333Y-114104819D01*
X127119047Y-114104819D02*
X127119047Y-113104819D01*
X127119047Y-113104819D02*
X127023809Y-113247676D01*
X127023809Y-113247676D02*
X126928571Y-113342914D01*
X126928571Y-113342914D02*
X126833333Y-113390533D01*
X128023809Y-113104819D02*
X128119047Y-113104819D01*
X128119047Y-113104819D02*
X128214285Y-113152438D01*
X128214285Y-113152438D02*
X128261904Y-113200057D01*
X128261904Y-113200057D02*
X128309523Y-113295295D01*
X128309523Y-113295295D02*
X128357142Y-113485771D01*
X128357142Y-113485771D02*
X128357142Y-113723866D01*
X128357142Y-113723866D02*
X128309523Y-113914342D01*
X128309523Y-113914342D02*
X128261904Y-114009580D01*
X128261904Y-114009580D02*
X128214285Y-114057200D01*
X128214285Y-114057200D02*
X128119047Y-114104819D01*
X128119047Y-114104819D02*
X128023809Y-114104819D01*
X128023809Y-114104819D02*
X127928571Y-114057200D01*
X127928571Y-114057200D02*
X127880952Y-114009580D01*
X127880952Y-114009580D02*
X127833333Y-113914342D01*
X127833333Y-113914342D02*
X127785714Y-113723866D01*
X127785714Y-113723866D02*
X127785714Y-113485771D01*
X127785714Y-113485771D02*
X127833333Y-113295295D01*
X127833333Y-113295295D02*
X127880952Y-113200057D01*
X127880952Y-113200057D02*
X127928571Y-113152438D01*
X127928571Y-113152438D02*
X128023809Y-113104819D01*
X128785714Y-114104819D02*
X128785714Y-113104819D01*
X128880952Y-113723866D02*
X129166666Y-114104819D01*
X129166666Y-113438152D02*
X128785714Y-113819104D01*
D11*
X127916666Y-112227149D02*
X127750000Y-111989054D01*
X127630952Y-112227149D02*
X127630952Y-111727149D01*
X127630952Y-111727149D02*
X127821428Y-111727149D01*
X127821428Y-111727149D02*
X127869047Y-111750959D01*
X127869047Y-111750959D02*
X127892857Y-111774768D01*
X127892857Y-111774768D02*
X127916666Y-111822387D01*
X127916666Y-111822387D02*
X127916666Y-111893816D01*
X127916666Y-111893816D02*
X127892857Y-111941435D01*
X127892857Y-111941435D02*
X127869047Y-111965244D01*
X127869047Y-111965244D02*
X127821428Y-111989054D01*
X127821428Y-111989054D02*
X127630952Y-111989054D01*
X128107143Y-111774768D02*
X128130952Y-111750959D01*
X128130952Y-111750959D02*
X128178571Y-111727149D01*
X128178571Y-111727149D02*
X128297619Y-111727149D01*
X128297619Y-111727149D02*
X128345238Y-111750959D01*
X128345238Y-111750959D02*
X128369047Y-111774768D01*
X128369047Y-111774768D02*
X128392857Y-111822387D01*
X128392857Y-111822387D02*
X128392857Y-111870006D01*
X128392857Y-111870006D02*
X128369047Y-111941435D01*
X128369047Y-111941435D02*
X128083333Y-112227149D01*
X128083333Y-112227149D02*
X128392857Y-112227149D01*
D10*
X117404761Y-114104819D02*
X116833333Y-114104819D01*
X117119047Y-114104819D02*
X117119047Y-113104819D01*
X117119047Y-113104819D02*
X117023809Y-113247676D01*
X117023809Y-113247676D02*
X116928571Y-113342914D01*
X116928571Y-113342914D02*
X116833333Y-113390533D01*
X118023809Y-113104819D02*
X118119047Y-113104819D01*
X118119047Y-113104819D02*
X118214285Y-113152438D01*
X118214285Y-113152438D02*
X118261904Y-113200057D01*
X118261904Y-113200057D02*
X118309523Y-113295295D01*
X118309523Y-113295295D02*
X118357142Y-113485771D01*
X118357142Y-113485771D02*
X118357142Y-113723866D01*
X118357142Y-113723866D02*
X118309523Y-113914342D01*
X118309523Y-113914342D02*
X118261904Y-114009580D01*
X118261904Y-114009580D02*
X118214285Y-114057200D01*
X118214285Y-114057200D02*
X118119047Y-114104819D01*
X118119047Y-114104819D02*
X118023809Y-114104819D01*
X118023809Y-114104819D02*
X117928571Y-114057200D01*
X117928571Y-114057200D02*
X117880952Y-114009580D01*
X117880952Y-114009580D02*
X117833333Y-113914342D01*
X117833333Y-113914342D02*
X117785714Y-113723866D01*
X117785714Y-113723866D02*
X117785714Y-113485771D01*
X117785714Y-113485771D02*
X117833333Y-113295295D01*
X117833333Y-113295295D02*
X117880952Y-113200057D01*
X117880952Y-113200057D02*
X117928571Y-113152438D01*
X117928571Y-113152438D02*
X118023809Y-113104819D01*
X118785714Y-114104819D02*
X118785714Y-113104819D01*
X118880952Y-113723866D02*
X119166666Y-114104819D01*
X119166666Y-113438152D02*
X118785714Y-113819104D01*
D11*
X117916666Y-112227149D02*
X117750000Y-111989054D01*
X117630952Y-112227149D02*
X117630952Y-111727149D01*
X117630952Y-111727149D02*
X117821428Y-111727149D01*
X117821428Y-111727149D02*
X117869047Y-111750959D01*
X117869047Y-111750959D02*
X117892857Y-111774768D01*
X117892857Y-111774768D02*
X117916666Y-111822387D01*
X117916666Y-111822387D02*
X117916666Y-111893816D01*
X117916666Y-111893816D02*
X117892857Y-111941435D01*
X117892857Y-111941435D02*
X117869047Y-111965244D01*
X117869047Y-111965244D02*
X117821428Y-111989054D01*
X117821428Y-111989054D02*
X117630952Y-111989054D01*
X118392857Y-112227149D02*
X118107143Y-112227149D01*
X118250000Y-112227149D02*
X118250000Y-111727149D01*
X118250000Y-111727149D02*
X118202381Y-111798578D01*
X118202381Y-111798578D02*
X118154762Y-111846197D01*
X118154762Y-111846197D02*
X118107143Y-111870006D01*
D10*
X107476191Y-114204819D02*
X107476191Y-113204819D01*
X107952381Y-114204819D02*
X107952381Y-113204819D01*
X107952381Y-113204819D02*
X108523809Y-114204819D01*
X108523809Y-114204819D02*
X108523809Y-113204819D01*
X106738095Y-109804819D02*
X107309523Y-109804819D01*
X107023809Y-110804819D02*
X107023809Y-109804819D01*
X107642857Y-110804819D02*
X107642857Y-109804819D01*
X107642857Y-109804819D02*
X108023809Y-109804819D01*
X108023809Y-109804819D02*
X108119047Y-109852438D01*
X108119047Y-109852438D02*
X108166666Y-109900057D01*
X108166666Y-109900057D02*
X108214285Y-109995295D01*
X108214285Y-109995295D02*
X108214285Y-110138152D01*
X108214285Y-110138152D02*
X108166666Y-110233390D01*
X108166666Y-110233390D02*
X108119047Y-110281009D01*
X108119047Y-110281009D02*
X108023809Y-110328628D01*
X108023809Y-110328628D02*
X107642857Y-110328628D01*
X109166666Y-110804819D02*
X108595238Y-110804819D01*
X108880952Y-110804819D02*
X108880952Y-109804819D01*
X108880952Y-109804819D02*
X108785714Y-109947676D01*
X108785714Y-109947676D02*
X108690476Y-110042914D01*
X108690476Y-110042914D02*
X108595238Y-110090533D01*
%TO.C,R2*%
D12*
X127000000Y-111375000D02*
X129000000Y-111375000D01*
X129000000Y-112625000D01*
X127000000Y-112625000D01*
X127000000Y-111375000D01*
%TO.C,R1*%
X117000000Y-111375000D02*
X119000000Y-111375000D01*
X119000000Y-112625000D01*
X117000000Y-112625000D01*
X117000000Y-111375000D01*
%TD*%
M02*
