%TF.GenerationSoftware,KiCad,Pcbnew,10.0.3*%
%TF.CreationDate,2026-07-23T08:26:36-04:00*%
%TF.ProjectId,env_proof,656e765f-7072-46f6-9f66-2e6b69636164,rev?*%
%TF.SameCoordinates,Original*%
%TF.FileFunction,Legend,Top*%
%TF.FilePolarity,Positive*%
%FSLAX46Y46*%
G04 Gerber Fmt 4.6, Leading zero omitted, Abs format (unit mm)*
G04 Created by KiCad (PCBNEW 10.0.3) date 2026-07-23 08:26:36*
%MOMM*%
%LPD*%
G01*
G04 APERTURE LIST*
%ADD10C,0.150000*%
%ADD11C,0.120000*%
G04 APERTURE END LIST*
D10*
X138738095Y-109806819D02*
X139309523Y-109806819D01*
X139023809Y-110806819D02*
X139023809Y-109806819D01*
X139642857Y-110806819D02*
X139642857Y-109806819D01*
X139642857Y-109806819D02*
X140023809Y-109806819D01*
X140023809Y-109806819D02*
X140119047Y-109854438D01*
X140119047Y-109854438D02*
X140166666Y-109902057D01*
X140166666Y-109902057D02*
X140214285Y-109997295D01*
X140214285Y-109997295D02*
X140214285Y-110140152D01*
X140214285Y-110140152D02*
X140166666Y-110235390D01*
X140166666Y-110235390D02*
X140119047Y-110283009D01*
X140119047Y-110283009D02*
X140023809Y-110330628D01*
X140023809Y-110330628D02*
X139642857Y-110330628D01*
X140595238Y-109902057D02*
X140642857Y-109854438D01*
X140642857Y-109854438D02*
X140738095Y-109806819D01*
X140738095Y-109806819D02*
X140976190Y-109806819D01*
X140976190Y-109806819D02*
X141071428Y-109854438D01*
X141071428Y-109854438D02*
X141119047Y-109902057D01*
X141119047Y-109902057D02*
X141166666Y-109997295D01*
X141166666Y-109997295D02*
X141166666Y-110092533D01*
X141166666Y-110092533D02*
X141119047Y-110235390D01*
X141119047Y-110235390D02*
X140547619Y-110806819D01*
X140547619Y-110806819D02*
X141166666Y-110806819D01*
X127833333Y-110804819D02*
X127500000Y-110328628D01*
X127261905Y-110804819D02*
X127261905Y-109804819D01*
X127261905Y-109804819D02*
X127642857Y-109804819D01*
X127642857Y-109804819D02*
X127738095Y-109852438D01*
X127738095Y-109852438D02*
X127785714Y-109900057D01*
X127785714Y-109900057D02*
X127833333Y-109995295D01*
X127833333Y-109995295D02*
X127833333Y-110138152D01*
X127833333Y-110138152D02*
X127785714Y-110233390D01*
X127785714Y-110233390D02*
X127738095Y-110281009D01*
X127738095Y-110281009D02*
X127642857Y-110328628D01*
X127642857Y-110328628D02*
X127261905Y-110328628D01*
X128214286Y-109900057D02*
X128261905Y-109852438D01*
X128261905Y-109852438D02*
X128357143Y-109804819D01*
X128357143Y-109804819D02*
X128595238Y-109804819D01*
X128595238Y-109804819D02*
X128690476Y-109852438D01*
X128690476Y-109852438D02*
X128738095Y-109900057D01*
X128738095Y-109900057D02*
X128785714Y-109995295D01*
X128785714Y-109995295D02*
X128785714Y-110090533D01*
X128785714Y-110090533D02*
X128738095Y-110233390D01*
X128738095Y-110233390D02*
X128166667Y-110804819D01*
X128166667Y-110804819D02*
X128785714Y-110804819D01*
X117833333Y-110804819D02*
X117500000Y-110328628D01*
X117261905Y-110804819D02*
X117261905Y-109804819D01*
X117261905Y-109804819D02*
X117642857Y-109804819D01*
X117642857Y-109804819D02*
X117738095Y-109852438D01*
X117738095Y-109852438D02*
X117785714Y-109900057D01*
X117785714Y-109900057D02*
X117833333Y-109995295D01*
X117833333Y-109995295D02*
X117833333Y-110138152D01*
X117833333Y-110138152D02*
X117785714Y-110233390D01*
X117785714Y-110233390D02*
X117738095Y-110281009D01*
X117738095Y-110281009D02*
X117642857Y-110328628D01*
X117642857Y-110328628D02*
X117261905Y-110328628D01*
X118785714Y-110804819D02*
X118214286Y-110804819D01*
X118500000Y-110804819D02*
X118500000Y-109804819D01*
X118500000Y-109804819D02*
X118404762Y-109947676D01*
X118404762Y-109947676D02*
X118309524Y-110042914D01*
X118309524Y-110042914D02*
X118214286Y-110090533D01*
X106738095Y-109806819D02*
X107309523Y-109806819D01*
X107023809Y-110806819D02*
X107023809Y-109806819D01*
X107642857Y-110806819D02*
X107642857Y-109806819D01*
X107642857Y-109806819D02*
X108023809Y-109806819D01*
X108023809Y-109806819D02*
X108119047Y-109854438D01*
X108119047Y-109854438D02*
X108166666Y-109902057D01*
X108166666Y-109902057D02*
X108214285Y-109997295D01*
X108214285Y-109997295D02*
X108214285Y-110140152D01*
X108214285Y-110140152D02*
X108166666Y-110235390D01*
X108166666Y-110235390D02*
X108119047Y-110283009D01*
X108119047Y-110283009D02*
X108023809Y-110330628D01*
X108023809Y-110330628D02*
X107642857Y-110330628D01*
X109166666Y-110806819D02*
X108595238Y-110806819D01*
X108880952Y-110806819D02*
X108880952Y-109806819D01*
X108880952Y-109806819D02*
X108785714Y-109949676D01*
X108785714Y-109949676D02*
X108690476Y-110044914D01*
X108690476Y-110044914D02*
X108595238Y-110092533D01*
%TO.C,TP2*%
D11*
X140950000Y-112000000D02*
G75*
G02*
X139050000Y-112000000I-950000J0D01*
G01*
X139050000Y-112000000D02*
G75*
G02*
X140950000Y-112000000I950000J0D01*
G01*
%TO.C,R2*%
X127772936Y-111265000D02*
X128227064Y-111265000D01*
X127772936Y-112735000D02*
X128227064Y-112735000D01*
%TO.C,R1*%
X117772936Y-111265000D02*
X118227064Y-111265000D01*
X117772936Y-112735000D02*
X118227064Y-112735000D01*
%TO.C,TP1*%
X108950000Y-112000000D02*
G75*
G02*
X107050000Y-112000000I-950000J0D01*
G01*
X107050000Y-112000000D02*
G75*
G02*
X108950000Y-112000000I950000J0D01*
G01*
%TD*%
M02*
